<svg width="1350" height="122" viewBox="0 0 1350 122" fill="none" xmlns="http://www.w3.org/2000/svg">
<g style="mix-blend-mode:exclusion">
<path d="M91.9374 104.313L91.9433 93.5713L1349.36 94.2571L1349.35 104.999L91.9374 104.313Z" fill="#FF4C3A"/>
<path d="M91.9458 87.9844L91.95 80.2502L1349.37 80.9359L1349.36 88.6702L91.9458 87.9844Z" fill="#FF7425"/>
<path d="M91.9507 76.8146L91.9549 69.0804L1349.37 69.7661L1349.37 77.5004L91.9507 76.8146Z" fill="#F8E929"/>
<path d="M91.958 66.0725L91.9622 58.3383L1349.38 59.0241L1349.37 66.7583L91.958 66.0725Z" fill="#D3DE2B"/>
<path d="M91.9678 49.744L91.972 42.0098L1349.39 42.6956L1349.38 50.4298L91.9678 49.744Z" fill="#48B82F"/>
<path d="M91.9717 38.5725L91.974 34.2757L1349.39 34.9615L1349.39 39.2583L91.9717 38.5725Z" fill="#54AAB5"/>
<path d="M91.9795 22.2437L91.9809 19.6657L1349.4 20.3514L1349.4 22.9295L91.9795 22.2437Z" fill="#3C5B8C"/>
<path d="M91.9902 5.91725L91.9923 2.05013L1349.41 2.7359L1349.41 6.60301L91.9902 5.91725Z" fill="#E8679D"/>
<path d="M92.4434 2.29636L92.1264 104.86L30.4669 81.9975L92.4434 2.29636Z" stroke="#F5F5F5"/>
</g>
</svg>
