<svg width="39" height="1056" viewBox="0 0 39 1056" fill="none" xmlns="http://www.w3.org/2000/svg">
<g style="mix-blend-mode:exclusion">
<path d="M33.6643 984.053L30.2349 984.048L30.4538 0.0395727L33.8833 0.0441573L33.6643 984.053Z" fill="#FF4C3A"/>
<path d="M28.4512 984.046L25.9821 984.043L26.2005 0.0340894L28.6696 0.0373982L28.4512 984.046Z" fill="#FF7425"/>
<path d="M24.8853 984.043L22.4161 984.039L22.6345 0.0303662L25.1037 0.033675L24.8853 984.043Z" fill="#F8E929"/>
<path d="M21.4558 984.037L18.9866 984.034L19.205 0.0246289L21.6742 0.0279377L21.4558 984.037Z" fill="#D3DE2B"/>
<path d="M16.2429 984.029L13.7737 984.026L13.9921 0.0169995L16.4613 0.0203083L16.2429 984.029Z" fill="#48B82F"/>
<path d="M12.6763 984.026L11.3046 984.024L11.523 0.0154794L12.8947 0.0173176L12.6763 984.026Z" fill="#54AAB5"/>
<path d="M7.46338 984.02L6.64032 984.019L6.85873 0.00998909L7.68178 0.011092L7.46338 984.02Z" fill="#3C5B8C"/>
<path d="M2.2511 984.012L1.01651 984.01L1.23492 0.0008927L2.4695 0.00254711L2.2511 984.012Z" fill="#E8679D"/>
<path d="M1.09515 983.657L33.8389 983.905L26.54 1032.16L1.09515 983.657Z" stroke="#F5F5F5"/>
</g>
</svg>
