<svg width="364" height="78" viewBox="0 0 364 78" fill="none" xmlns="http://www.w3.org/2000/svg">
<mask id="path-1-outside-1_8_269" maskUnits="userSpaceOnUse" x="-2" y="-1" width="364" height="63" fill="black">
<rect fill="white" x="-2" y="-1" width="364" height="63"/>
<path d="M24.064 59H14.528L0 12.92H9.536L19.328 42.616L29.12 12.92H38.592L24.064 59ZM37.5385 59V12.92H46.8185V59H37.5385ZM74.91 35.832C74.91 33.6133 74.6327 31.5867 74.078 29.752C73.5233 27.8747 72.67 26.2747 71.518 24.952C70.366 23.5867 68.9153 22.5413 67.166 21.816C65.4593 21.0907 63.4327 20.728 61.086 20.728H58.526V51.192H61.214C63.5607 51.192 65.5873 50.808 67.294 50.04C69.0007 49.2293 70.4087 48.1413 71.518 46.776C72.67 45.4107 73.5233 43.7893 74.078 41.912C74.6327 39.992 74.91 37.944 74.91 35.768V35.832ZM84.19 35.896C84.19 39.5227 83.678 42.7653 82.654 45.624C81.6727 48.4827 80.222 50.9147 78.302 52.92C76.382 54.8827 74.014 56.3973 71.198 57.464C68.382 58.488 65.1607 59 61.534 59H49.246V12.92H64.03C67.486 12.92 70.4727 13.5173 72.99 14.712C75.55 15.864 77.662 17.4853 79.326 19.576C80.99 21.624 82.206 24.056 82.974 26.872C83.7847 29.6453 84.19 32.6533 84.19 35.896Z"/>
<path d="M85.516 59V12.92H116.044V20.728H94.796V32.312H113.996V39.608H94.796V51.192H116.556V59H85.516ZM100.556 10.104H94.732L101.9 0.631996H110.924L100.556 10.104Z"/>
<path d="M150.092 35.96C150.092 33.912 149.836 31.9067 149.324 29.944C148.812 27.9813 148.022 26.232 146.956 24.696C145.932 23.1173 144.588 21.8587 142.924 20.92C141.302 19.9387 139.34 19.448 137.036 19.448C134.732 19.448 132.748 19.9387 131.084 20.92C129.42 21.8587 128.054 23.1173 126.988 24.696C125.964 26.232 125.196 27.9813 124.684 29.944C124.172 31.9067 123.916 33.912 123.916 35.96C123.916 38.008 124.172 40.0133 124.684 41.976C125.196 43.9387 125.964 45.7093 126.988 47.288C128.054 48.824 129.42 50.0827 131.084 51.064C132.748 52.0027 134.732 52.472 137.036 52.472C139.34 52.472 141.302 52.0027 142.924 51.064C144.588 50.0827 145.932 48.824 146.956 47.288C148.022 45.7093 148.812 43.9387 149.324 41.976C149.836 40.0133 150.092 38.008 150.092 35.96ZM159.372 35.96C159.372 39.288 158.86 42.424 157.836 45.368C156.812 48.312 155.34 50.872 153.42 53.048C151.5 55.224 149.153 56.952 146.38 58.232C143.649 59.4693 140.534 60.088 137.036 60.088C133.537 60.088 130.401 59.4693 127.628 58.232C124.854 56.952 122.508 55.224 120.588 53.048C118.668 50.872 117.196 48.312 116.172 45.368C115.148 42.424 114.636 39.288 114.636 35.96C114.636 32.632 115.148 29.496 116.172 26.552C117.196 23.608 118.668 21.048 120.588 18.872C122.508 16.696 124.854 14.9893 127.628 13.752C130.401 12.472 133.537 11.832 137.036 11.832C140.534 11.832 143.649 12.472 146.38 13.752C149.153 14.9893 151.5 16.696 153.42 18.872C155.34 21.048 156.812 23.608 157.836 26.552C158.86 29.496 159.372 32.632 159.372 35.96Z"/>
<path d="M186.408 35.832C186.408 33.6133 186.13 31.5867 185.576 29.752C185.021 27.8747 184.168 26.2747 183.016 24.952C181.864 23.5867 180.413 22.5413 178.664 21.816C176.957 21.0907 174.93 20.728 172.584 20.728H170.024V51.192H172.712C175.058 51.192 177.085 50.808 178.792 50.04C180.498 49.2293 181.906 48.1413 183.016 46.776C184.168 45.4107 185.021 43.7893 185.576 41.912C186.13 39.992 186.408 37.944 186.408 35.768V35.832ZM195.688 35.896C195.688 39.5227 195.176 42.7653 194.152 45.624C193.17 48.4827 191.72 50.9147 189.8 52.92C187.88 54.8827 185.512 56.3973 182.696 57.464C179.88 58.488 176.658 59 173.032 59H160.744V12.92H175.528C178.984 12.92 181.97 13.5173 184.488 14.712C187.048 15.864 189.16 17.4853 190.824 19.576C192.488 21.624 193.704 24.056 194.472 26.872C195.282 29.6453 195.688 32.6533 195.688 35.896Z"/>
<path d="M219.669 26.936C219.669 24.8027 218.987 23.16 217.621 22.008C216.299 20.8133 213.973 20.216 210.645 20.216H206.421V34.04H210.901C211.925 34.04 212.971 33.9333 214.037 33.72C215.104 33.5067 216.043 33.1227 216.853 32.568C217.707 32.0133 218.389 31.288 218.901 30.392C219.413 29.4533 219.669 28.3013 219.669 26.936ZM228.949 25.592C228.949 28.2373 228.267 30.6267 226.901 32.76C225.536 34.8507 223.552 36.28 220.949 37.048C222.4 37.432 223.616 38.0293 224.597 38.84C225.579 39.608 226.368 40.5253 226.965 41.592C227.563 42.616 227.968 43.768 228.181 45.048C228.437 46.328 228.565 47.672 228.565 49.08V59H219.541V50.68C219.541 49.144 219.413 47.7573 219.157 46.52C218.944 45.24 218.517 44.1733 217.877 43.32C217.237 42.4667 216.363 41.8053 215.253 41.336C214.144 40.8667 212.736 40.632 211.029 40.632H206.421V59H197.141V12.92H214.357C216.405 12.92 218.304 13.176 220.053 13.688C221.845 14.1573 223.381 14.9253 224.661 15.992C225.984 17.016 227.029 18.3387 227.797 19.96C228.565 21.5387 228.949 23.416 228.949 25.592Z"/>
<path d="M256.14 9.976L251.34 3.96L246.732 9.976H240.396L247.948 0.631996H254.86L262.476 9.976H256.14ZM264.652 35.96C264.652 33.912 264.396 31.9067 263.884 29.944C263.372 27.9813 262.582 26.232 261.516 24.696C260.492 23.1173 259.148 21.8587 257.484 20.92C255.862 19.9387 253.9 19.448 251.596 19.448C249.292 19.448 247.307 19.9387 245.643 20.92C243.98 21.8587 242.614 23.1173 241.547 24.696C240.524 26.232 239.756 27.9813 239.243 29.944C238.731 31.9067 238.476 33.912 238.476 35.96C238.476 38.008 238.731 40.0133 239.243 41.976C239.756 43.9387 240.524 45.7093 241.547 47.288C242.614 48.824 243.98 50.0827 245.643 51.064C247.307 52.0027 249.292 52.472 251.596 52.472C253.9 52.472 255.862 52.0027 257.484 51.064C259.148 50.0827 260.492 48.824 261.516 47.288C262.582 45.7093 263.372 43.9387 263.884 41.976C264.396 40.0133 264.652 38.008 264.652 35.96ZM273.932 35.96C273.932 39.288 273.42 42.424 272.396 45.368C271.372 48.312 269.9 50.872 267.979 53.048C266.06 55.224 263.713 56.952 260.94 58.232C258.209 59.4693 255.094 60.088 251.596 60.088C248.097 60.088 244.961 59.4693 242.188 58.232C239.414 56.952 237.068 55.224 235.148 53.048C233.227 50.872 231.755 48.312 230.731 45.368C229.707 42.424 229.195 39.288 229.195 35.96C229.195 32.632 229.707 29.496 230.731 26.552C231.755 23.608 233.227 21.048 235.148 18.872C237.068 16.696 239.414 14.9893 242.188 13.752C244.961 12.472 248.097 11.832 251.596 11.832C255.094 11.832 258.209 12.472 260.94 13.752C263.713 14.9893 266.06 16.696 267.979 18.872C269.9 21.048 271.372 23.608 272.396 26.552C273.42 29.496 273.932 32.632 273.932 35.96Z"/>
<path d="M317.672 59V27.896C317.672 26.8293 317.586 25.7627 317.416 24.696C317.288 23.6293 317.01 22.6907 316.584 21.88C316.157 21.0693 315.538 20.408 314.728 19.896C313.96 19.384 312.957 19.128 311.72 19.128C310.44 19.128 309.416 19.384 308.648 19.896C307.88 20.408 307.282 21.0693 306.856 21.88C306.429 22.6907 306.13 23.6293 305.96 24.696C305.832 25.7627 305.768 26.8293 305.768 27.896V59H296.488V27.896C296.488 26.8293 296.402 25.7627 296.232 24.696C296.104 23.6293 295.826 22.6907 295.4 21.88C294.973 21.0693 294.354 20.408 293.544 19.896C292.776 19.384 291.773 19.128 290.536 19.128C289.298 19.128 288.274 19.384 287.464 19.896C286.696 20.408 286.098 21.0693 285.672 21.88C285.245 22.6907 284.946 23.6293 284.776 24.696C284.648 25.7627 284.584 26.8293 284.584 27.896V59H275.304V26.808C275.304 21.7733 276.605 18.0187 279.208 15.544C281.81 13.0693 285.586 11.832 290.536 11.832C292.797 11.832 294.824 12.1733 296.616 12.856C298.408 13.5387 299.922 14.584 301.16 15.992C302.397 14.584 303.89 13.5387 305.64 12.856C307.432 12.1733 309.458 11.832 311.72 11.832C316.712 11.832 320.488 13.0693 323.048 15.544C325.65 18.0187 326.952 21.7733 326.952 26.808V59H317.672Z"/>
<path d="M329.386 59V12.92H359.914V20.728H338.666V32.312H357.866V39.608H338.666V51.192H360.426V59H329.386Z"/>
</mask>
<path d="M24.064 59H14.528L0 12.92H9.536L19.328 42.616L29.12 12.92H38.592L24.064 59ZM37.5385 59V12.92H46.8185V59H37.5385ZM74.91 35.832C74.91 33.6133 74.6327 31.5867 74.078 29.752C73.5233 27.8747 72.67 26.2747 71.518 24.952C70.366 23.5867 68.9153 22.5413 67.166 21.816C65.4593 21.0907 63.4327 20.728 61.086 20.728H58.526V51.192H61.214C63.5607 51.192 65.5873 50.808 67.294 50.04C69.0007 49.2293 70.4087 48.1413 71.518 46.776C72.67 45.4107 73.5233 43.7893 74.078 41.912C74.6327 39.992 74.91 37.944 74.91 35.768V35.832ZM84.19 35.896C84.19 39.5227 83.678 42.7653 82.654 45.624C81.6727 48.4827 80.222 50.9147 78.302 52.92C76.382 54.8827 74.014 56.3973 71.198 57.464C68.382 58.488 65.1607 59 61.534 59H49.246V12.92H64.03C67.486 12.92 70.4727 13.5173 72.99 14.712C75.55 15.864 77.662 17.4853 79.326 19.576C80.99 21.624 82.206 24.056 82.974 26.872C83.7847 29.6453 84.19 32.6533 84.19 35.896Z" fill="#FF4C3A"/>
<path d="M85.516 59V12.92H116.044V20.728H94.796V32.312H113.996V39.608H94.796V51.192H116.556V59H85.516ZM100.556 10.104H94.732L101.9 0.631996H110.924L100.556 10.104Z" fill="#FF7425"/>
<path d="M150.092 35.96C150.092 33.912 149.836 31.9067 149.324 29.944C148.812 27.9813 148.022 26.232 146.956 24.696C145.932 23.1173 144.588 21.8587 142.924 20.92C141.302 19.9387 139.34 19.448 137.036 19.448C134.732 19.448 132.748 19.9387 131.084 20.92C129.42 21.8587 128.054 23.1173 126.988 24.696C125.964 26.232 125.196 27.9813 124.684 29.944C124.172 31.9067 123.916 33.912 123.916 35.96C123.916 38.008 124.172 40.0133 124.684 41.976C125.196 43.9387 125.964 45.7093 126.988 47.288C128.054 48.824 129.42 50.0827 131.084 51.064C132.748 52.0027 134.732 52.472 137.036 52.472C139.34 52.472 141.302 52.0027 142.924 51.064C144.588 50.0827 145.932 48.824 146.956 47.288C148.022 45.7093 148.812 43.9387 149.324 41.976C149.836 40.0133 150.092 38.008 150.092 35.96ZM159.372 35.96C159.372 39.288 158.86 42.424 157.836 45.368C156.812 48.312 155.34 50.872 153.42 53.048C151.5 55.224 149.153 56.952 146.38 58.232C143.649 59.4693 140.534 60.088 137.036 60.088C133.537 60.088 130.401 59.4693 127.628 58.232C124.854 56.952 122.508 55.224 120.588 53.048C118.668 50.872 117.196 48.312 116.172 45.368C115.148 42.424 114.636 39.288 114.636 35.96C114.636 32.632 115.148 29.496 116.172 26.552C117.196 23.608 118.668 21.048 120.588 18.872C122.508 16.696 124.854 14.9893 127.628 13.752C130.401 12.472 133.537 11.832 137.036 11.832C140.534 11.832 143.649 12.472 146.38 13.752C149.153 14.9893 151.5 16.696 153.42 18.872C155.34 21.048 156.812 23.608 157.836 26.552C158.86 29.496 159.372 32.632 159.372 35.96Z" fill="#F8E929"/>
<path d="M186.408 35.832C186.408 33.6133 186.13 31.5867 185.576 29.752C185.021 27.8747 184.168 26.2747 183.016 24.952C181.864 23.5867 180.413 22.5413 178.664 21.816C176.957 21.0907 174.93 20.728 172.584 20.728H170.024V51.192H172.712C175.058 51.192 177.085 50.808 178.792 50.04C180.498 49.2293 181.906 48.1413 183.016 46.776C184.168 45.4107 185.021 43.7893 185.576 41.912C186.13 39.992 186.408 37.944 186.408 35.768V35.832ZM195.688 35.896C195.688 39.5227 195.176 42.7653 194.152 45.624C193.17 48.4827 191.72 50.9147 189.8 52.92C187.88 54.8827 185.512 56.3973 182.696 57.464C179.88 58.488 176.658 59 173.032 59H160.744V12.92H175.528C178.984 12.92 181.97 13.5173 184.488 14.712C187.048 15.864 189.16 17.4853 190.824 19.576C192.488 21.624 193.704 24.056 194.472 26.872C195.282 29.6453 195.688 32.6533 195.688 35.896Z" fill="#D3DE2B"/>
<path d="M219.669 26.936C219.669 24.8027 218.987 23.16 217.621 22.008C216.299 20.8133 213.973 20.216 210.645 20.216H206.421V34.04H210.901C211.925 34.04 212.971 33.9333 214.037 33.72C215.104 33.5067 216.043 33.1227 216.853 32.568C217.707 32.0133 218.389 31.288 218.901 30.392C219.413 29.4533 219.669 28.3013 219.669 26.936ZM228.949 25.592C228.949 28.2373 228.267 30.6267 226.901 32.76C225.536 34.8507 223.552 36.28 220.949 37.048C222.4 37.432 223.616 38.0293 224.597 38.84C225.579 39.608 226.368 40.5253 226.965 41.592C227.563 42.616 227.968 43.768 228.181 45.048C228.437 46.328 228.565 47.672 228.565 49.08V59H219.541V50.68C219.541 49.144 219.413 47.7573 219.157 46.52C218.944 45.24 218.517 44.1733 217.877 43.32C217.237 42.4667 216.363 41.8053 215.253 41.336C214.144 40.8667 212.736 40.632 211.029 40.632H206.421V59H197.141V12.92H214.357C216.405 12.92 218.304 13.176 220.053 13.688C221.845 14.1573 223.381 14.9253 224.661 15.992C225.984 17.016 227.029 18.3387 227.797 19.96C228.565 21.5387 228.949 23.416 228.949 25.592Z" fill="#48B82F"/>
<path d="M256.14 9.976L251.34 3.96L246.732 9.976H240.396L247.948 0.631996H254.86L262.476 9.976H256.14ZM264.652 35.96C264.652 33.912 264.396 31.9067 263.884 29.944C263.372 27.9813 262.582 26.232 261.516 24.696C260.492 23.1173 259.148 21.8587 257.484 20.92C255.862 19.9387 253.9 19.448 251.596 19.448C249.292 19.448 247.307 19.9387 245.643 20.92C243.98 21.8587 242.614 23.1173 241.547 24.696C240.524 26.232 239.756 27.9813 239.243 29.944C238.731 31.9067 238.476 33.912 238.476 35.96C238.476 38.008 238.731 40.0133 239.243 41.976C239.756 43.9387 240.524 45.7093 241.547 47.288C242.614 48.824 243.98 50.0827 245.643 51.064C247.307 52.0027 249.292 52.472 251.596 52.472C253.9 52.472 255.862 52.0027 257.484 51.064C259.148 50.0827 260.492 48.824 261.516 47.288C262.582 45.7093 263.372 43.9387 263.884 41.976C264.396 40.0133 264.652 38.008 264.652 35.96ZM273.932 35.96C273.932 39.288 273.42 42.424 272.396 45.368C271.372 48.312 269.9 50.872 267.979 53.048C266.06 55.224 263.713 56.952 260.94 58.232C258.209 59.4693 255.094 60.088 251.596 60.088C248.097 60.088 244.961 59.4693 242.188 58.232C239.414 56.952 237.068 55.224 235.148 53.048C233.227 50.872 231.755 48.312 230.731 45.368C229.707 42.424 229.195 39.288 229.195 35.96C229.195 32.632 229.707 29.496 230.731 26.552C231.755 23.608 233.227 21.048 235.148 18.872C237.068 16.696 239.414 14.9893 242.188 13.752C244.961 12.472 248.097 11.832 251.596 11.832C255.094 11.832 258.209 12.472 260.94 13.752C263.713 14.9893 266.06 16.696 267.979 18.872C269.9 21.048 271.372 23.608 272.396 26.552C273.42 29.496 273.932 32.632 273.932 35.96Z" fill="#87CBD3"/>
<path d="M317.672 59V27.896C317.672 26.8293 317.586 25.7627 317.416 24.696C317.288 23.6293 317.01 22.6907 316.584 21.88C316.157 21.0693 315.538 20.408 314.728 19.896C313.96 19.384 312.957 19.128 311.72 19.128C310.44 19.128 309.416 19.384 308.648 19.896C307.88 20.408 307.282 21.0693 306.856 21.88C306.429 22.6907 306.13 23.6293 305.96 24.696C305.832 25.7627 305.768 26.8293 305.768 27.896V59H296.488V27.896C296.488 26.8293 296.402 25.7627 296.232 24.696C296.104 23.6293 295.826 22.6907 295.4 21.88C294.973 21.0693 294.354 20.408 293.544 19.896C292.776 19.384 291.773 19.128 290.536 19.128C289.298 19.128 288.274 19.384 287.464 19.896C286.696 20.408 286.098 21.0693 285.672 21.88C285.245 22.6907 284.946 23.6293 284.776 24.696C284.648 25.7627 284.584 26.8293 284.584 27.896V59H275.304V26.808C275.304 21.7733 276.605 18.0187 279.208 15.544C281.81 13.0693 285.586 11.832 290.536 11.832C292.797 11.832 294.824 12.1733 296.616 12.856C298.408 13.5387 299.922 14.584 301.16 15.992C302.397 14.584 303.89 13.5387 305.64 12.856C307.432 12.1733 309.458 11.832 311.72 11.832C316.712 11.832 320.488 13.0693 323.048 15.544C325.65 18.0187 326.952 21.7733 326.952 26.808V59H317.672Z" fill="#51688B"/>
<path d="M329.386 59V12.92H359.914V20.728H338.666V32.312H357.866V39.608H338.666V51.192H360.426V59H329.386Z" fill="#E8679D"/>
<path d="M24.064 59V60H24.7972L25.0177 59.3007L24.064 59ZM14.528 59L13.5743 59.3007L13.7948 60H14.528V59ZM0 12.92V11.92H-1.3638L-0.953723 13.2207L0 12.92ZM9.536 12.92L10.4857 12.6068L10.2592 11.92H9.536V12.92ZM19.328 42.616L18.3783 42.9292L19.328 45.8093L20.2777 42.9292L19.328 42.616ZM29.12 12.92V11.92H28.3968L28.1703 12.6068L29.12 12.92ZM38.592 12.92L39.5457 13.2207L39.9558 11.92H38.592V12.92ZM24.064 58H14.528V60H24.064V58ZM15.4817 58.6993L0.953723 12.6193L-0.953723 13.2207L13.5743 59.3007L15.4817 58.6993ZM0 13.92H9.536V11.92H0V13.92ZM8.5863 13.2332L18.3783 42.9292L20.2777 42.3028L10.4857 12.6068L8.5863 13.2332ZM20.2777 42.9292L30.0697 13.2332L28.1703 12.6068L18.3783 42.3028L20.2777 42.9292ZM29.12 13.92H38.592V11.92H29.12V13.92ZM37.6383 12.6193L23.1103 58.6993L25.0177 59.3007L39.5457 13.2207L37.6383 12.6193ZM37.5385 59H36.5385V60H37.5385V59ZM37.5385 12.92V11.92H36.5385V12.92H37.5385ZM46.8185 12.92H47.8185V11.92H46.8185V12.92ZM46.8185 59V60H47.8185V59H46.8185ZM38.5385 59V12.92H36.5385V59H38.5385ZM37.5385 13.92H46.8185V11.92H37.5385V13.92ZM45.8185 12.92V59H47.8185V12.92H45.8185ZM46.8185 58H37.5385V60H46.8185V58ZM74.078 29.752L73.119 30.0354L73.1208 30.0414L74.078 29.752ZM71.518 24.952L70.7537 25.5969L70.7588 25.6029L70.7639 25.6088L71.518 24.952ZM67.166 21.816L66.7748 22.7364L66.783 22.7397L67.166 21.816ZM58.526 20.728V19.728H57.526V20.728H58.526ZM58.526 51.192H57.526V52.192H58.526V51.192ZM67.294 50.04L67.7044 50.9519L67.7138 50.9477L67.7231 50.9433L67.294 50.04ZM71.518 46.776L70.7537 46.1311L70.7477 46.1382L70.7419 46.1454L71.518 46.776ZM74.078 41.912L75.037 42.1954L75.0387 42.1895L74.078 41.912ZM82.654 45.624L81.7125 45.2867L81.7082 45.2993L82.654 45.624ZM78.302 52.92L79.0169 53.6193L79.0243 53.6116L78.302 52.92ZM71.198 57.464L71.5398 58.4039L71.5522 58.3992L71.198 57.464ZM49.246 59H48.246V60H49.246V59ZM49.246 12.92V11.92H48.246V12.92H49.246ZM72.99 14.712L72.5613 15.6154L72.5704 15.6198L72.5796 15.6239L72.99 14.712ZM79.326 19.576L78.5435 20.1988L78.5499 20.2066L79.326 19.576ZM82.974 26.872L82.0092 27.1351L82.0116 27.1439L82.0142 27.1526L82.974 26.872ZM75.91 35.832C75.91 33.5304 75.6223 31.4045 75.0352 29.4626L73.1208 30.0414C73.643 31.7688 73.91 33.6963 73.91 35.832H75.91ZM75.037 29.4687C74.4464 27.4696 73.5288 25.7382 72.2721 24.2952L70.7639 25.6088C71.8112 26.8112 72.6003 28.2797 73.119 30.0353L75.037 29.4687ZM72.2823 24.3071C71.0211 22.8124 69.4368 21.675 67.549 20.8923L66.783 22.7397C68.3939 23.4077 69.7109 24.3609 70.7537 25.5969L72.2823 24.3071ZM67.5571 20.8957C65.6986 20.1058 63.5327 19.728 61.086 19.728V21.728C63.3326 21.728 65.22 22.0755 66.7749 22.7363L67.5571 20.8957ZM61.086 19.728H58.526V21.728H61.086V19.728ZM57.526 20.728V51.192H59.526V20.728H57.526ZM58.526 52.192H61.214V50.192H58.526V52.192ZM61.214 52.192C63.6673 52.192 65.8403 51.7907 67.7044 50.9519L66.8836 49.1281C65.3344 49.8253 63.454 50.192 61.214 50.192V52.192ZM67.7231 50.9433C69.5541 50.0735 71.084 48.8959 72.2941 47.4066L70.7419 46.1454C69.7333 47.3867 68.4472 48.3851 66.8649 49.1367L67.7231 50.9433ZM72.2823 47.4209C73.5317 45.94 74.4469 44.1925 75.037 42.1953L73.119 41.6287C72.5997 43.3861 71.8083 44.8813 70.7537 46.1311L72.2823 47.4209ZM75.0387 42.1895C75.6216 40.1717 75.91 38.0296 75.91 35.768H73.91C73.91 37.8584 73.6437 39.8123 73.1173 41.6345L75.0387 42.1895ZM73.91 35.768V35.832H75.91V35.768H73.91ZM83.19 35.896C83.19 39.4295 82.6911 42.555 81.7126 45.2868L83.5954 45.9612C84.6649 42.9756 85.19 39.6159 85.19 35.896H83.19ZM81.7082 45.2993C80.7697 48.0332 79.3909 50.3368 77.5797 52.2284L79.0243 53.6116C81.0531 51.4926 82.5757 48.9321 83.5998 45.9487L81.7082 45.2993ZM77.5872 52.2207C75.7783 54.0698 73.5372 55.5086 70.8438 56.5288L71.5522 58.3992C74.4908 57.286 76.9857 55.6956 79.0168 53.6193L77.5872 52.2207ZM70.8563 56.5242C68.1701 57.501 65.0679 58 61.534 58V60C65.2534 60 68.5939 59.475 71.5397 58.4038L70.8563 56.5242ZM61.534 58H49.246V60H61.534V58ZM50.246 59V12.92H48.246V59H50.246ZM49.246 13.92H64.03V11.92H49.246V13.92ZM64.03 13.92C67.3725 13.92 70.2061 14.4977 72.5613 15.6154L73.4187 13.8086C70.7392 12.5369 67.5995 11.92 64.03 11.92V13.92ZM72.5796 15.6239C75.0019 16.714 76.9838 18.2391 78.5436 20.1987L80.1084 18.9532C78.3402 16.7316 76.0981 15.014 73.4004 13.8001L72.5796 15.6239ZM78.5499 20.2066C80.1172 22.1356 81.274 24.4391 82.0092 27.1351L83.9388 26.6089C83.1381 23.6729 81.8628 21.1124 80.1021 18.9454L78.5499 20.2066ZM82.0142 27.1526C82.7952 29.8244 83.19 32.7369 83.19 35.896H85.19C85.19 32.5698 84.7742 29.4663 83.9338 26.5914L82.0142 27.1526ZM85.516 59H84.516V60H85.516V59ZM85.516 12.92V11.92H84.516V12.92H85.516ZM116.044 12.92H117.044V11.92H116.044V12.92ZM116.044 20.728V21.728H117.044V20.728H116.044ZM94.796 20.728V19.728H93.796V20.728H94.796ZM94.796 32.312H93.796V33.312H94.796V32.312ZM113.996 32.312H114.996V31.312H113.996V32.312ZM113.996 39.608V40.608H114.996V39.608H113.996ZM94.796 39.608V38.608H93.796V39.608H94.796ZM94.796 51.192H93.796V52.192H94.796V51.192ZM116.556 51.192H117.556V50.192H116.556V51.192ZM116.556 59V60H117.556V59H116.556ZM100.556 10.104V11.104H100.944L101.23 10.8423L100.556 10.104ZM94.732 10.104L93.9346 9.50055L92.7212 11.104H94.732V10.104ZM101.9 0.631996V-0.368004H101.403L101.103 0.0285535L101.9 0.631996ZM110.924 0.631996L111.598 1.37028L113.501 -0.368004H110.924V0.631996ZM86.516 59V12.92H84.516V59H86.516ZM85.516 13.92H116.044V11.92H85.516V13.92ZM115.044 12.92V20.728H117.044V12.92H115.044ZM116.044 19.728H94.796V21.728H116.044V19.728ZM93.796 20.728V32.312H95.796V20.728H93.796ZM94.796 33.312H113.996V31.312H94.796V33.312ZM112.996 32.312V39.608H114.996V32.312H112.996ZM113.996 38.608H94.796V40.608H113.996V38.608ZM93.796 39.608V51.192H95.796V39.608H93.796ZM94.796 52.192H116.556V50.192H94.796V52.192ZM115.556 51.192V59H117.556V51.192H115.556ZM116.556 58H85.516V60H116.556V58ZM100.556 9.104H94.732V11.104H100.556V9.104ZM95.5294 10.7074L102.697 1.23544L101.103 0.0285535L93.9346 9.50055L95.5294 10.7074ZM101.9 1.632H110.924V-0.368004H101.9V1.632ZM110.25 -0.106292L99.8815 9.36571L101.23 10.8423L111.598 1.37028L110.25 -0.106292ZM149.324 29.944L150.291 29.6916L150.291 29.6916L149.324 29.944ZM146.956 24.696L146.117 25.2402L146.125 25.2534L146.134 25.2664L146.956 24.696ZM142.924 20.92L142.406 21.7755L142.419 21.7834L142.432 21.791L142.924 20.92ZM131.084 20.92L131.575 21.791L131.583 21.7863L131.591 21.7814L131.084 20.92ZM126.988 24.696L126.159 24.1361L126.155 24.1413L126.988 24.696ZM124.684 29.944L123.716 29.6916L123.716 29.6916L124.684 29.944ZM124.684 41.976L123.716 42.2284L123.716 42.2284L124.684 41.976ZM126.988 47.288L126.149 47.8322L126.157 47.8454L126.166 47.8584L126.988 47.288ZM131.084 51.064L130.576 51.9254L130.584 51.9303L130.592 51.935L131.084 51.064ZM142.924 51.064L143.425 51.9295L143.431 51.9254L142.924 51.064ZM146.956 47.288L146.127 46.7281L146.123 46.7333L146.956 47.288ZM149.324 41.976L150.291 42.2284L150.291 42.2284L149.324 41.976ZM157.836 45.368L156.891 45.0395L156.891 45.0395L157.836 45.368ZM153.42 53.048L152.67 52.3864L152.67 52.3864L153.42 53.048ZM146.38 58.232L146.792 59.1429L146.799 59.14L146.38 58.232ZM127.628 58.232L127.208 59.14L127.22 59.1452L127.628 58.232ZM120.588 53.048L121.337 52.3864L120.588 53.048ZM116.172 45.368L117.116 45.0395L117.116 45.0395L116.172 45.368ZM116.172 26.552L117.116 26.8805L117.116 26.8805L116.172 26.552ZM120.588 18.872L121.337 19.5336L121.337 19.5336L120.588 18.872ZM127.628 13.752L128.035 14.6653L128.047 14.66L127.628 13.752ZM146.38 13.752L145.955 14.6575L145.964 14.6614L145.972 14.6652L146.38 13.752ZM153.42 18.872L152.67 19.5336L152.67 19.5336L153.42 18.872ZM157.836 26.552L156.891 26.8805L156.891 26.8805L157.836 26.552ZM151.092 35.96C151.092 33.8277 150.825 31.7375 150.291 29.6916L148.356 30.1964C148.846 32.0759 149.092 33.9963 149.092 35.96H151.092ZM150.291 29.6916C149.752 27.6248 148.916 25.766 147.777 24.1256L146.134 25.2664C147.128 26.698 147.871 28.3379 148.356 30.1964L150.291 29.6916ZM147.794 24.1518C146.681 22.4356 145.217 21.0657 143.415 20.049L142.432 21.791C143.958 22.6516 145.182 23.799 146.117 25.2402L147.794 24.1518ZM143.441 20.0645C141.633 18.9701 139.483 18.448 137.036 18.448V20.448C139.196 20.448 140.971 20.9072 142.406 21.7755L143.441 20.0645ZM137.036 18.448C134.587 18.448 132.421 18.9704 130.576 20.0586L131.591 21.7814C133.074 20.9069 134.876 20.448 137.036 20.448V18.448ZM130.592 20.049C128.794 21.0636 127.313 22.4287 126.159 24.1361L127.816 25.2559C128.796 23.806 130.045 22.6537 131.575 21.791L130.592 20.049ZM126.155 24.1413C125.064 25.7785 124.253 27.6319 123.716 29.6916L125.651 30.1964C126.138 28.3308 126.863 26.6855 127.82 25.2507L126.155 24.1413ZM123.716 29.6916C123.182 31.7375 122.916 33.8277 122.916 35.96H124.916C124.916 33.9963 125.161 32.0759 125.651 30.1964L123.716 29.6916ZM122.916 35.96C122.916 38.0923 123.182 40.1825 123.716 42.2284L125.651 41.7236C125.161 39.8441 124.916 37.9237 124.916 35.96H122.916ZM123.716 42.2284C124.253 44.2865 125.062 46.157 126.149 47.8322L127.826 46.7438C126.865 45.2616 126.138 43.5908 125.651 41.7236L123.716 42.2284ZM126.166 47.8584C127.318 49.5168 128.792 50.8733 130.576 51.9254L131.591 50.2026C130.047 49.2921 128.791 48.1312 127.809 46.7176L126.166 47.8584ZM130.592 51.935C132.434 52.9741 134.595 53.472 137.036 53.472V51.472C134.868 51.472 133.061 51.0313 131.575 50.193L130.592 51.935ZM137.036 53.472C139.475 53.472 141.62 52.9744 143.425 51.9294L142.422 50.1986C140.985 51.0309 139.204 51.472 137.036 51.472V53.472ZM143.431 51.9254C145.219 50.8712 146.676 49.5099 147.788 47.8427L146.123 46.7333C145.187 48.1381 143.956 49.2942 142.416 50.2026L143.431 51.9254ZM147.784 47.8479C148.918 46.1694 149.752 44.2936 150.291 42.2284L148.356 41.7236C147.871 43.5838 147.126 45.2492 146.127 46.7281L147.784 47.8479ZM150.291 42.2284C150.825 40.1825 151.092 38.0923 151.092 35.96H149.092C149.092 37.9237 148.846 39.8441 148.356 41.7236L150.291 42.2284ZM158.372 35.96C158.372 39.1838 157.876 42.2081 156.891 45.0395L158.78 45.6965C159.843 42.6399 160.372 39.3922 160.372 35.96H158.372ZM156.891 45.0395C155.906 47.87 154.498 50.3148 152.67 52.3864L154.169 53.7096C156.181 51.4292 157.717 48.754 158.78 45.6965L156.891 45.0395ZM152.67 52.3864C150.846 54.4527 148.614 56.0992 145.96 57.324L146.799 59.14C149.691 57.8048 152.153 55.9953 154.169 53.7096L152.67 52.3864ZM145.967 57.3211C143.386 58.4907 140.415 59.088 137.036 59.088V61.088C140.653 61.088 143.912 60.448 146.792 59.1429L145.967 57.3211ZM137.036 59.088C133.656 59.088 130.662 58.4908 128.035 57.3188L127.22 59.1452C130.14 60.4478 133.418 61.088 137.036 61.088V59.088ZM128.047 57.324C125.393 56.0992 123.161 54.4527 121.337 52.3864L119.838 53.7096C121.854 55.9953 124.316 57.8048 127.208 59.14L128.047 57.324ZM121.337 52.3864C119.509 50.3148 118.101 47.87 117.116 45.0395L115.227 45.6965C116.29 48.754 117.826 51.4292 119.838 53.7096L121.337 52.3864ZM117.116 45.0395C116.131 42.2081 115.636 39.1838 115.636 35.96H113.636C113.636 39.3922 114.164 42.6399 115.227 45.6965L117.116 45.0395ZM115.636 35.96C115.636 32.7362 116.131 29.7119 117.116 26.8805L115.227 26.2235C114.164 29.2801 113.636 32.5278 113.636 35.96H115.636ZM117.116 26.8805C118.101 24.05 119.509 21.6052 121.337 19.5336L119.838 18.2104C117.826 20.4908 116.29 23.166 115.227 26.2235L117.116 26.8805ZM121.337 19.5336C123.158 17.47 125.386 15.847 128.035 14.6652L127.22 12.8388C124.322 14.1317 121.857 15.922 119.838 18.2104L121.337 19.5336ZM128.047 14.66C130.671 13.4488 133.661 12.832 137.036 12.832V10.832C133.413 10.832 130.131 11.4952 127.208 12.844L128.047 14.66ZM137.036 12.832C140.411 12.832 143.377 13.4489 145.955 14.6575L146.804 12.8465C143.921 11.4951 140.657 10.832 137.036 10.832V12.832ZM145.972 14.6652C148.621 15.847 150.849 17.47 152.67 19.5336L154.169 18.2104C152.15 15.922 149.685 14.1317 146.787 12.8388L145.972 14.6652ZM152.67 19.5336C154.498 21.6052 155.906 24.05 156.891 26.8805L158.78 26.2235C157.717 23.166 156.181 20.4908 154.169 18.2104L152.67 19.5336ZM156.891 26.8805C157.876 29.7119 158.372 32.7362 158.372 35.96H160.372C160.372 32.5278 159.843 29.2801 158.78 26.2235L156.891 26.8805ZM185.576 29.752L184.616 30.0354L184.618 30.0414L185.576 29.752ZM183.016 24.952L182.251 25.5969L182.256 25.6029L182.261 25.6088L183.016 24.952ZM178.664 21.816L178.272 22.7364L178.28 22.7397L178.664 21.816ZM170.024 20.728V19.728H169.024V20.728H170.024ZM170.024 51.192H169.024V52.192H170.024V51.192ZM178.792 50.04L179.202 50.9519L179.211 50.9477L179.221 50.9433L178.792 50.04ZM183.016 46.776L182.251 46.1311L182.245 46.1382L182.239 46.1454L183.016 46.776ZM185.576 41.912L186.535 42.1954L186.536 42.1895L185.576 41.912ZM194.152 45.624L193.21 45.2867L193.206 45.2993L194.152 45.624ZM189.8 52.92L190.514 53.6193L190.522 53.6116L189.8 52.92ZM182.696 57.464L183.037 58.4039L183.05 58.3992L182.696 57.464ZM160.744 59H159.744V60H160.744V59ZM160.744 12.92V11.92H159.744V12.92H160.744ZM184.488 14.712L184.059 15.6154L184.068 15.6198L184.077 15.6239L184.488 14.712ZM190.824 19.576L190.041 20.1988L190.047 20.2066L190.824 19.576ZM194.472 26.872L193.507 27.1351L193.509 27.1439L193.512 27.1526L194.472 26.872ZM187.408 35.832C187.408 33.5304 187.12 31.4045 186.533 29.4626L184.618 30.0414C185.141 31.7688 185.408 33.6963 185.408 35.832H187.408ZM186.535 29.4687C185.944 27.4696 185.026 25.7382 183.77 24.2952L182.261 25.6088C183.309 26.8112 184.098 28.2797 184.616 30.0353L186.535 29.4687ZM183.78 24.3071C182.519 22.8124 180.934 21.675 179.047 20.8923L178.28 22.7397C179.891 23.4077 181.208 24.3609 182.251 25.5969L183.78 24.3071ZM179.055 20.8957C177.196 20.1058 175.03 19.728 172.584 19.728V21.728C174.83 21.728 176.718 22.0755 178.272 22.7363L179.055 20.8957ZM172.584 19.728H170.024V21.728H172.584V19.728ZM169.024 20.728V51.192H171.024V20.728H169.024ZM170.024 52.192H172.712V50.192H170.024V52.192ZM172.712 52.192C175.165 52.192 177.338 51.7907 179.202 50.9519L178.381 49.1281C176.832 49.8253 174.952 50.192 172.712 50.192V52.192ZM179.221 50.9433C181.052 50.0735 182.582 48.8959 183.792 47.4066L182.239 46.1454C181.231 47.3867 179.945 48.3851 178.362 49.1367L179.221 50.9433ZM183.78 47.4209C185.029 45.94 185.944 44.1925 186.535 42.1953L184.616 41.6287C184.097 43.3861 183.306 44.8813 182.251 46.1311L183.78 47.4209ZM186.536 42.1895C187.119 40.1717 187.408 38.0296 187.408 35.768H185.408C185.408 37.8584 185.141 39.8123 184.615 41.6345L186.536 42.1895ZM185.408 35.768V35.832H187.408V35.768H185.408ZM194.688 35.896C194.688 39.4295 194.189 42.555 193.21 45.2868L195.093 45.9612C196.162 42.9756 196.688 39.6159 196.688 35.896H194.688ZM193.206 45.2993C192.267 48.0332 190.888 50.3368 189.077 52.2284L190.522 53.6116C192.551 51.4926 194.073 48.9321 195.097 45.9487L193.206 45.2993ZM189.085 52.2207C187.276 54.0698 185.035 55.5086 182.341 56.5288L183.05 58.3992C185.988 57.286 188.483 55.6956 190.514 53.6193L189.085 52.2207ZM182.354 56.5242C179.668 57.501 176.565 58 173.032 58V60C176.751 60 180.091 59.475 183.037 58.4038L182.354 56.5242ZM173.032 58H160.744V60H173.032V58ZM161.744 59V12.92H159.744V59H161.744ZM160.744 13.92H175.528V11.92H160.744V13.92ZM175.528 13.92C178.87 13.92 181.704 14.4977 184.059 15.6154L184.916 13.8086C182.237 12.5369 179.097 11.92 175.528 11.92V13.92ZM184.077 15.6239C186.499 16.714 188.481 18.2391 190.041 20.1987L191.606 18.9532C189.838 16.7316 187.596 15.014 184.898 13.8001L184.077 15.6239ZM190.047 20.2066C191.615 22.1356 192.771 24.4391 193.507 27.1351L195.436 26.6089C194.636 23.6729 193.36 21.1124 191.6 18.9454L190.047 20.2066ZM193.512 27.1526C194.293 29.8244 194.688 32.7369 194.688 35.896H196.688C196.688 32.5698 196.272 29.4663 195.431 26.5914L193.512 27.1526ZM217.621 22.008L216.951 22.7501L216.964 22.7614L216.977 22.7723L217.621 22.008ZM206.421 20.216V19.216H205.421V20.216H206.421ZM206.421 34.04H205.421V35.04H206.421V34.04ZM216.853 32.568L216.309 31.7296L216.299 31.736L216.289 31.7427L216.853 32.568ZM218.901 30.392L219.77 30.8881L219.775 30.8795L219.779 30.8709L218.901 30.392ZM226.901 32.76L227.739 33.3068L227.744 33.2991L226.901 32.76ZM220.949 37.048L220.666 36.0889L217.239 37.1003L220.694 38.0147L220.949 37.048ZM224.597 38.84L223.961 39.611L223.971 39.6194L223.981 39.6275L224.597 38.84ZM226.965 41.592L226.093 42.0806L226.097 42.0883L226.102 42.0959L226.965 41.592ZM228.181 45.048L227.195 45.2124L227.198 45.2283L227.201 45.2441L228.181 45.048ZM228.565 59V60H229.565V59H228.565ZM219.541 59H218.541V60H219.541V59ZM219.157 46.52L218.171 46.6844L218.174 46.7036L218.178 46.7226L219.157 46.52ZM217.877 43.32L218.677 42.72L218.677 42.72L217.877 43.32ZM215.253 41.336L215.643 40.415L215.643 40.415L215.253 41.336ZM206.421 40.632V39.632H205.421V40.632H206.421ZM206.421 59V60H207.421V59H206.421ZM197.141 59H196.141V60H197.141V59ZM197.141 12.92V11.92H196.141V12.92H197.141ZM220.053 13.688L219.773 14.6477L219.786 14.6518L219.8 14.6554L220.053 13.688ZM224.661 15.992L224.021 16.7602L224.035 16.7717L224.049 16.7827L224.661 15.992ZM227.797 19.96L226.894 20.3881L226.898 20.3975L227.797 19.96ZM220.669 26.936C220.669 24.5711 219.901 22.6229 218.266 21.2437L216.977 22.7723C218.073 23.6971 218.669 25.0342 218.669 26.936H220.669ZM218.292 21.2659C216.681 19.8112 214.031 19.216 210.645 19.216V21.216C213.916 21.216 215.916 21.8154 216.951 22.7501L218.292 21.2659ZM210.645 19.216H206.421V21.216H210.645V19.216ZM205.421 20.216V34.04H207.421V20.216H205.421ZM206.421 35.04H210.901V33.04H206.421V35.04ZM210.901 35.04C211.995 35.04 213.106 34.926 214.234 34.7006L213.841 32.7394C212.835 32.9406 211.856 33.04 210.901 33.04V35.04ZM214.234 34.7006C215.418 34.4637 216.485 34.0318 217.418 33.3933L216.289 31.7427C215.601 32.2135 214.79 32.5496 213.841 32.7394L214.234 34.7006ZM217.398 33.4064C218.387 32.7638 219.18 31.9203 219.77 30.8881L218.033 29.8959C217.599 30.6557 217.026 31.2629 216.309 31.7296L217.398 33.4064ZM219.779 30.8709C220.391 29.7501 220.669 28.4234 220.669 26.936H218.669C218.669 28.1793 218.436 29.1565 218.024 29.9131L219.779 30.8709ZM227.949 25.592C227.949 28.0552 227.317 30.2559 226.059 32.2209L227.744 33.2991C229.217 30.9974 229.949 28.4195 229.949 25.592H227.949ZM226.064 32.2132C224.84 34.0871 223.063 35.3818 220.666 36.0889L221.233 38.0071C224.042 37.1782 226.232 35.6142 227.739 33.3068L226.064 32.2132ZM220.694 38.0147C222.029 38.3683 223.109 38.9073 223.961 39.611L225.234 38.069C224.124 37.1514 222.771 36.4957 221.205 36.0813L220.694 38.0147ZM223.981 39.6275C224.86 40.3154 225.562 41.1318 226.093 42.0806L227.838 41.1034C227.175 39.9188 226.297 38.9006 225.214 38.0525L223.981 39.6275ZM226.102 42.0959C226.632 43.0056 227 44.0407 227.195 45.2124L229.168 44.8836C228.937 43.4953 228.493 42.2264 227.829 41.0881L226.102 42.0959ZM227.201 45.2441C227.443 46.4547 227.565 47.7327 227.565 49.08H229.565C229.565 47.6113 229.432 46.2013 229.162 44.8519L227.201 45.2441ZM227.565 49.08V59H229.565V49.08H227.565ZM228.565 58H219.541V60H228.565V58ZM220.541 59V50.68H218.541V59H220.541ZM220.541 50.68C220.541 49.0899 220.409 47.6338 220.137 46.3174L218.178 46.7226C218.418 47.8808 218.541 49.1981 218.541 50.68H220.541ZM220.144 46.3556C219.91 44.9514 219.432 43.7264 218.677 42.72L217.077 43.92C217.603 44.6203 217.978 45.5286 218.171 46.6844L220.144 46.3556ZM218.677 42.72C217.918 41.7078 216.894 40.9441 215.643 40.415L214.864 42.257C215.832 42.6665 216.557 43.2256 217.077 43.92L218.677 42.72ZM215.643 40.415C214.37 39.8766 212.818 39.632 211.029 39.632V41.632C212.654 41.632 213.918 41.8567 214.864 42.257L215.643 40.415ZM211.029 39.632H206.421V41.632H211.029V39.632ZM205.421 40.632V59H207.421V40.632H205.421ZM206.421 58H197.141V60H206.421V58ZM198.141 59V12.92H196.141V59H198.141ZM197.141 13.92H214.357V11.92H197.141V13.92ZM214.357 13.92C216.322 13.92 218.125 14.1655 219.773 14.6477L220.334 12.7283C218.483 12.1865 216.489 11.92 214.357 11.92V13.92ZM219.8 14.6554C221.466 15.0917 222.866 15.7976 224.021 16.7602L225.302 15.2238C223.897 14.0531 222.225 13.223 220.307 12.7206L219.8 14.6554ZM224.049 16.7827C225.239 17.7035 226.188 18.8983 226.894 20.3881L228.701 19.5319C227.871 17.779 226.73 16.3284 225.274 15.2013L224.049 16.7827ZM226.898 20.3975C227.586 21.8112 227.949 23.5321 227.949 25.592H229.949C229.949 23.2999 229.545 21.2662 228.697 19.5225L226.898 20.3975ZM256.14 9.976L255.358 10.5997L255.658 10.976H256.14V9.976ZM251.34 3.96L252.121 3.33632L251.323 2.33646L250.546 3.35192L251.34 3.96ZM246.732 9.976V10.976H247.225L247.525 10.5841L246.732 9.976ZM240.396 9.976L239.618 9.34741L238.302 10.976H240.396V9.976ZM247.948 0.631996V-0.368004H247.47L247.17 0.00341116L247.948 0.631996ZM254.86 0.631996L255.635 0.000205051L255.335 -0.368004H254.86V0.631996ZM262.476 9.976V10.976H264.581L263.251 9.34421L262.476 9.976ZM263.884 29.944L264.851 29.6916L264.851 29.6916L263.884 29.944ZM261.516 24.696L260.677 25.2402L260.685 25.2534L260.694 25.2664L261.516 24.696ZM257.484 20.92L256.966 21.7755L256.979 21.7834L256.992 21.791L257.484 20.92ZM245.643 20.92L246.135 21.791L246.143 21.7863L246.151 21.7814L245.643 20.92ZM241.547 24.696L240.719 24.1361L240.715 24.1413L241.547 24.696ZM239.243 29.944L238.276 29.6916L238.276 29.6916L239.243 29.944ZM239.243 41.976L238.276 42.2284L238.276 42.2284L239.243 41.976ZM241.547 47.288L240.709 47.8322L240.717 47.8454L240.726 47.8584L241.547 47.288ZM245.643 51.064L245.136 51.9254L245.144 51.9303L245.152 51.935L245.643 51.064ZM257.484 51.064L257.985 51.9295L257.991 51.9254L257.484 51.064ZM261.516 47.288L260.687 46.7281L260.683 46.7333L261.516 47.288ZM263.884 41.976L264.851 42.2284L264.851 42.2284L263.884 41.976ZM272.396 45.368L271.451 45.0395L271.451 45.0395L272.396 45.368ZM267.979 53.048L267.23 52.3864L267.23 52.3864L267.979 53.048ZM260.94 58.232L261.352 59.1429L261.359 59.14L260.94 58.232ZM242.188 58.232L241.768 59.14L241.78 59.1452L242.188 58.232ZM235.148 53.048L235.897 52.3864L235.148 53.048ZM230.731 45.368L231.676 45.0395L231.676 45.0395L230.731 45.368ZM230.731 26.552L231.676 26.8805L231.676 26.8805L230.731 26.552ZM235.148 18.872L235.897 19.5336L235.897 19.5336L235.148 18.872ZM242.188 13.752L242.595 14.6653L242.607 14.66L242.188 13.752ZM260.94 13.752L260.515 14.6575L260.524 14.6614L260.532 14.6652L260.94 13.752ZM267.979 18.872L267.23 19.5336L267.23 19.5336L267.979 18.872ZM272.396 26.552L271.451 26.8805L271.451 26.8805L272.396 26.552ZM256.921 9.35232L252.121 3.33632L250.558 4.58368L255.358 10.5997L256.921 9.35232ZM250.546 3.35192L245.938 9.36792L247.525 10.5841L252.133 4.56808L250.546 3.35192ZM246.732 8.976H240.396V10.976H246.732V8.976ZM241.173 10.6046L248.725 1.26058L247.17 0.00341116L239.618 9.34741L241.173 10.6046ZM247.948 1.632H254.86V-0.368004H247.948V1.632ZM254.084 1.26379L261.7 10.6078L263.251 9.34421L255.635 0.000205051L254.084 1.26379ZM262.476 8.976H256.14V10.976H262.476V8.976ZM265.652 35.96C265.652 33.8277 265.385 31.7375 264.851 29.6916L262.916 30.1964C263.406 32.0759 263.652 33.9963 263.652 35.96H265.652ZM264.851 29.6916C264.312 27.6248 263.476 25.766 262.337 24.1256L260.694 25.2664C261.688 26.698 262.431 28.3379 262.916 30.1964L264.851 29.6916ZM262.354 24.1518C261.241 22.4356 259.777 21.0657 257.975 20.049L256.992 21.791C258.518 22.6516 259.742 23.799 260.677 25.2402L262.354 24.1518ZM258.001 20.0645C256.193 18.9701 254.043 18.448 251.596 18.448V20.448C253.756 20.448 255.531 20.9072 256.966 21.7755L258.001 20.0645ZM251.596 18.448C249.147 18.448 246.981 18.9704 245.136 20.0586L246.151 21.7814C247.634 20.9069 249.436 20.448 251.596 20.448V18.448ZM245.152 20.049C243.354 21.0636 241.873 22.4287 240.719 24.1361L242.376 25.2559C243.356 23.806 244.605 22.6537 246.135 21.791L245.152 20.049ZM240.715 24.1413C239.624 25.7785 238.813 27.6319 238.276 29.6916L240.211 30.1964C240.698 28.3308 241.423 26.6855 242.38 25.2507L240.715 24.1413ZM238.276 29.6916C237.742 31.7375 237.476 33.8277 237.476 35.96H239.476C239.476 33.9963 239.721 32.0759 240.211 30.1964L238.276 29.6916ZM237.476 35.96C237.476 38.0923 237.742 40.1825 238.276 42.2284L240.211 41.7236C239.721 39.8441 239.476 37.9237 239.476 35.96H237.476ZM238.276 42.2284C238.813 44.2865 239.622 46.157 240.709 47.8322L242.386 46.7438C241.425 45.2616 240.698 43.5908 240.211 41.7236L238.276 42.2284ZM240.726 47.8584C241.878 49.5168 243.352 50.8733 245.136 51.9254L246.151 50.2026C244.607 49.2921 243.351 48.1312 242.369 46.7176L240.726 47.8584ZM245.152 51.935C246.994 52.9741 249.155 53.472 251.596 53.472V51.472C249.428 51.472 247.621 51.0313 246.135 50.193L245.152 51.935ZM251.596 53.472C254.035 53.472 256.18 52.9744 257.985 51.9294L256.982 50.1986C255.545 51.0309 253.764 51.472 251.596 51.472V53.472ZM257.991 51.9254C259.779 50.8712 261.236 49.5099 262.348 47.8427L260.683 46.7333C259.747 48.1381 258.516 49.2942 256.976 50.2026L257.991 51.9254ZM262.344 47.8479C263.478 46.1694 264.312 44.2936 264.851 42.2284L262.916 41.7236C262.431 43.5838 261.686 45.2492 260.687 46.7281L262.344 47.8479ZM264.851 42.2284C265.385 40.1825 265.652 38.0923 265.652 35.96H263.652C263.652 37.9237 263.406 39.8441 262.916 41.7236L264.851 42.2284ZM272.932 35.96C272.932 39.1838 272.436 42.2081 271.451 45.0395L273.34 45.6965C274.403 42.6399 274.932 39.3922 274.932 35.96H272.932ZM271.451 45.0395C270.466 47.87 269.058 50.3148 267.23 52.3864L268.729 53.7096C270.741 51.4292 272.277 48.754 273.34 45.6965L271.451 45.0395ZM267.23 52.3864C265.406 54.4527 263.174 56.0992 260.52 57.324L261.359 59.14C264.251 57.8048 266.713 55.9953 268.729 53.7096L267.23 52.3864ZM260.527 57.3211C257.946 58.4907 254.975 59.088 251.596 59.088V61.088C255.213 61.088 258.472 60.448 261.352 59.1429L260.527 57.3211ZM251.596 59.088C248.216 59.088 245.222 58.4908 242.595 57.3188L241.78 59.1452C244.7 60.4478 247.978 61.088 251.596 61.088V59.088ZM242.607 57.324C239.953 56.0992 237.721 54.4527 235.897 52.3864L234.398 53.7096C236.414 55.9953 238.876 57.8048 241.768 59.14L242.607 57.324ZM235.897 52.3864C234.069 50.3148 232.661 47.87 231.676 45.0395L229.787 45.6965C230.85 48.754 232.386 51.4292 234.398 53.7096L235.897 52.3864ZM231.676 45.0395C230.691 42.2081 230.195 39.1838 230.195 35.96H228.195C228.195 39.3922 228.724 42.6399 229.787 45.6965L231.676 45.0395ZM230.195 35.96C230.195 32.7362 230.691 29.7119 231.676 26.8805L229.787 26.2235C228.724 29.2801 228.195 32.5278 228.195 35.96H230.195ZM231.676 26.8805C232.661 24.05 234.069 21.6052 235.897 19.5336L234.398 18.2104C232.386 20.4908 230.85 23.166 229.787 26.2235L231.676 26.8805ZM235.897 19.5336C237.718 17.47 239.946 15.847 242.595 14.6652L241.78 12.8388C238.882 14.1317 236.417 15.922 234.398 18.2104L235.897 19.5336ZM242.607 14.66C245.231 13.4488 248.221 12.832 251.596 12.832V10.832C247.973 10.832 244.691 11.4952 241.768 12.844L242.607 14.66ZM251.596 12.832C254.971 12.832 257.937 13.4489 260.515 14.6575L261.364 12.8465C258.481 11.4951 255.217 10.832 251.596 10.832V12.832ZM260.532 14.6652C263.181 15.847 265.409 17.47 267.23 19.5336L268.729 18.2104C266.71 15.922 264.245 14.1317 261.347 12.8388L260.532 14.6652ZM267.23 19.5336C269.058 21.6052 270.466 24.05 271.451 26.8805L273.34 26.2235C272.277 23.166 270.741 20.4908 268.729 18.2104L267.23 19.5336ZM271.451 26.8805C272.436 29.7119 272.932 32.7362 272.932 35.96H274.932C274.932 32.5278 274.403 29.2801 273.34 26.2235L271.451 26.8805ZM317.672 59H316.672V60H317.672V59ZM317.416 24.696L316.423 24.8151L316.425 24.8346L316.428 24.854L317.416 24.696ZM316.584 21.88L317.468 21.4143L317.468 21.4142L316.584 21.88ZM314.728 19.896L314.173 20.728L314.183 20.7349L314.194 20.7415L314.728 19.896ZM308.648 19.896L309.202 20.7281L309.202 20.728L308.648 19.896ZM306.856 21.88L307.74 22.3457L307.74 22.3457L306.856 21.88ZM305.96 24.696L304.972 24.538L304.969 24.5574L304.967 24.5769L305.96 24.696ZM305.768 59V60H306.768V59H305.768ZM296.488 59H295.488V60H296.488V59ZM296.232 24.696L295.239 24.8151L295.241 24.8346L295.244 24.854L296.232 24.696ZM295.4 21.88L296.284 21.4143L296.284 21.4142L295.4 21.88ZM293.544 19.896L292.989 20.728L292.999 20.7349L293.01 20.7415L293.544 19.896ZM287.464 19.896L286.93 19.0505L286.919 19.0571L286.909 19.0639L287.464 19.896ZM285.672 21.88L284.787 21.4143L284.787 21.4143L285.672 21.88ZM284.776 24.696L283.788 24.538L283.785 24.5574L283.783 24.5769L284.776 24.696ZM284.584 59V60H285.584V59H284.584ZM275.304 59H274.304V60H275.304V59ZM279.208 15.544L279.897 16.2687L279.897 16.2687L279.208 15.544ZM296.616 12.856L296.26 13.7905L296.26 13.7905L296.616 12.856ZM301.16 15.992L300.408 16.6521L301.16 17.5069L301.911 16.6521L301.16 15.992ZM305.64 12.856L305.283 11.9215L305.276 11.9244L305.64 12.856ZM323.048 15.544L322.352 16.263L322.358 16.2687L323.048 15.544ZM326.952 59V60H327.952V59H326.952ZM318.672 59V27.896H316.672V59H318.672ZM318.672 27.896C318.672 26.7757 318.582 25.6563 318.403 24.538L316.428 24.854C316.59 25.8691 316.672 26.8829 316.672 27.896H318.672ZM318.408 24.5769C318.268 23.4096 317.961 22.3498 317.468 21.4143L315.699 22.3457C316.06 23.0315 316.307 23.8491 316.423 24.8151L318.408 24.5769ZM317.468 21.4142C316.956 20.4411 316.213 19.6516 315.261 19.0505L314.194 20.7415C314.863 21.1644 315.357 21.6976 315.699 22.3457L317.468 21.4142ZM315.282 19.064C314.303 18.4109 313.088 18.128 311.72 18.128V20.128C312.825 20.128 313.616 20.3571 314.173 20.728L315.282 19.064ZM311.72 18.128C310.316 18.128 309.077 18.4076 308.093 19.064L309.202 20.728C309.754 20.3604 310.563 20.128 311.72 20.128V18.128ZM308.093 19.0639C307.187 19.6678 306.476 20.4547 305.971 21.4143L307.74 22.3457C308.089 21.684 308.572 21.1482 309.202 20.7281L308.093 19.0639ZM305.971 21.4142C305.485 22.3367 305.157 23.3826 304.972 24.538L306.947 24.854C307.103 23.876 307.373 23.0446 307.74 22.3457L305.971 21.4142ZM304.967 24.5769C304.834 25.6828 304.768 26.7892 304.768 27.896H306.768C306.768 26.8694 306.829 25.8426 306.952 24.8151L304.967 24.5769ZM304.768 27.896V59H306.768V27.896H304.768ZM305.768 58H296.488V60H305.768V58ZM297.488 59V27.896H295.488V59H297.488ZM297.488 27.896C297.488 26.7757 297.398 25.6563 297.219 24.538L295.244 24.854C295.406 25.8691 295.488 26.8829 295.488 27.896H297.488ZM297.224 24.5769C297.084 23.4096 296.777 22.3498 296.284 21.4143L294.515 22.3457C294.876 23.0315 295.123 23.8491 295.239 24.8151L297.224 24.5769ZM296.284 21.4142C295.772 20.4411 295.029 19.6516 294.077 19.0505L293.01 20.7415C293.679 21.1644 294.173 21.6976 294.515 22.3457L296.284 21.4142ZM294.098 19.064C293.119 18.4109 291.904 18.128 290.536 18.128V20.128C291.641 20.128 292.432 20.3571 292.989 20.728L294.098 19.064ZM290.536 18.128C289.163 18.128 287.94 18.4121 286.93 19.0505L287.997 20.7415C288.608 20.3559 289.433 20.128 290.536 20.128V18.128ZM286.909 19.0639C286.003 19.6678 285.292 20.4547 284.787 21.4143L286.556 22.3457C286.905 21.684 287.388 21.1482 288.018 20.7281L286.909 19.0639ZM284.787 21.4143C284.301 22.3367 283.973 23.3826 283.788 24.538L285.763 24.854C285.919 23.876 286.189 23.0446 286.556 22.3457L284.787 21.4143ZM283.783 24.5769C283.65 25.6828 283.584 26.7892 283.584 27.896H285.584C285.584 26.8694 285.645 25.8426 285.768 24.8151L283.783 24.5769ZM283.584 27.896V59H285.584V27.896H283.584ZM284.584 58H275.304V60H284.584V58ZM276.304 59V26.808H274.304V59H276.304ZM276.304 26.808C276.304 21.9347 277.561 18.489 279.897 16.2687L278.518 14.8193C275.648 17.5483 274.304 21.6119 274.304 26.808H276.304ZM279.897 16.2687C282.253 14.0285 285.744 12.832 290.536 12.832V10.832C285.428 10.832 281.368 12.1101 278.518 14.8193L279.897 16.2687ZM290.536 12.832C292.697 12.832 294.6 13.1581 296.26 13.7905L296.972 11.9215C295.047 11.1885 292.897 10.832 290.536 10.832V12.832ZM296.26 13.7905C297.903 14.4166 299.281 15.3693 300.408 16.6521L301.911 15.3319C300.563 13.7987 298.912 12.6607 296.972 11.9215L296.26 13.7905ZM301.911 16.6521C303.042 15.3645 304.402 14.4122 306.003 13.7876L305.276 11.9244C303.378 12.6651 301.752 13.8035 300.408 15.3319L301.911 16.6521ZM305.995 13.7905C307.655 13.1581 309.558 12.832 311.72 12.832V10.832C309.358 10.832 307.208 11.1885 305.284 11.9215L305.995 13.7905ZM311.72 12.832C316.557 12.832 320.043 14.0304 322.352 16.263L323.743 14.825C320.932 12.1082 316.866 10.832 311.72 10.832V12.832ZM322.358 16.2687C324.694 18.489 325.952 21.9347 325.952 26.808H327.952C327.952 21.6119 326.607 17.5483 323.737 14.8193L322.358 16.2687ZM325.952 26.808V59H327.952V26.808H325.952ZM326.952 58H317.672V60H326.952V58ZM329.386 59H328.386V60H329.386V59ZM329.386 12.92V11.92H328.386V12.92H329.386ZM359.914 12.92H360.914V11.92H359.914V12.92ZM359.914 20.728V21.728H360.914V20.728H359.914ZM338.666 20.728V19.728H337.666V20.728H338.666ZM338.666 32.312H337.666V33.312H338.666V32.312ZM357.866 32.312H358.866V31.312H357.866V32.312ZM357.866 39.608V40.608H358.866V39.608H357.866ZM338.666 39.608V38.608H337.666V39.608H338.666ZM338.666 51.192H337.666V52.192H338.666V51.192ZM360.426 51.192H361.426V50.192H360.426V51.192ZM360.426 59V60H361.426V59H360.426ZM330.386 59V12.92H328.386V59H330.386ZM329.386 13.92H359.914V11.92H329.386V13.92ZM358.914 12.92V20.728H360.914V12.92H358.914ZM359.914 19.728H338.666V21.728H359.914V19.728ZM337.666 20.728V32.312H339.666V20.728H337.666ZM338.666 33.312H357.866V31.312H338.666V33.312ZM356.866 32.312V39.608H358.866V32.312H356.866ZM357.866 38.608H338.666V40.608H357.866V38.608ZM337.666 39.608V51.192H339.666V39.608H337.666ZM338.666 52.192H360.426V50.192H338.666V52.192ZM359.426 51.192V59H361.426V51.192H359.426ZM360.426 58H329.386V60H360.426V58Z" fill="#F5F5F5" fill-opacity="0.61" mask="url(#path-1-outside-1_8_269)"/>
</svg>
